<svg width="219" height="218" viewBox="0 0 219 218" fill="none" xmlns="http://www.w3.org/2000/svg">
<rect width="218" height="218" rx="5" fill="white"/>
<path d="M10.944 82.064L17.024 79.12L22.848 90.64L18.496 92.752L10.944 82.064ZM78.055 95.824H77.735L74.215 103.056L64.423 120.912L54.631 103.056L51.111 95.824H50.791V130H43.879V85.328H52.455L64.423 108.048H64.807L76.775 85.328H84.967V130H78.055V95.824ZM96.004 138.832V81.36H107.716V86.544H102.276V133.648H107.716V138.832H96.004ZM134.097 130.768C131.195 130.768 128.55 130.277 126.161 129.296C123.814 128.272 121.787 126.8 120.081 124.88C118.417 122.917 117.115 120.507 116.177 117.648C115.281 114.747 114.833 111.419 114.833 107.664C114.833 103.909 115.281 100.603 116.177 97.744C117.115 94.8427 118.417 92.432 120.081 90.512C121.787 88.5493 123.814 87.0773 126.161 86.096C128.55 85.072 131.195 84.56 134.097 84.56C136.998 84.56 139.622 85.072 141.969 86.096C144.358 87.0773 146.385 88.5493 148.049 90.512C149.755 92.432 151.057 94.8427 151.953 97.744C152.891 100.603 153.361 103.909 153.361 107.664C153.361 111.419 152.891 114.747 151.953 117.648C151.057 120.507 149.755 122.917 148.049 124.88C146.385 126.8 144.358 128.272 141.969 129.296C139.622 130.277 136.998 130.768 134.097 130.768ZM134.097 124.304C135.803 124.304 137.361 124.005 138.769 123.408C140.219 122.811 141.435 121.957 142.417 120.848C143.441 119.696 144.23 118.309 144.785 116.688C145.339 115.067 145.617 113.232 145.617 111.184V104.144C145.617 102.096 145.339 100.261 144.785 98.64C144.23 97.0187 143.441 95.6533 142.417 94.544C141.435 93.392 140.219 92.5173 138.769 91.92C137.361 91.3227 135.803 91.024 134.097 91.024C132.347 91.024 130.769 91.3227 129.361 91.92C127.953 92.5173 126.737 93.392 125.713 94.544C124.731 95.6533 123.963 97.0187 123.409 98.64C122.854 100.261 122.577 102.096 122.577 104.144V111.184C122.577 113.232 122.854 115.067 123.409 116.688C123.963 118.309 124.731 119.696 125.713 120.848C126.737 121.957 127.953 122.811 129.361 123.408C130.769 124.005 132.347 124.304 134.097 124.304ZM172.171 81.36V138.832H160.459V133.648H165.899V86.544H160.459V81.36H172.171ZM188.632 82.064L194.712 79.12L200.536 90.64L196.184 92.752L188.632 82.064Z" fill="black"/>
</svg>
