<svg xmlns="http://www.w3.org/2000/svg">
    <g id="icon-showcase" fill="currentColor">
        <path d="M22 26H10a2 2 0 01-2-2V8a2 2 0 012-2H22a2 2 0 012 2V24A2 2 0 0122 26zM10 8V24H22V8zM4 24H0V22H4V10H0V8H4a2 2 0 012 2V22A2 2 0 014 24zM32 24H28a2 2 0 01-2-2V10a2 2 0 012-2h4v2H28V22h4z"></path>
    </g>
    <g id="icon-collab" fill="currentColor">
        <path d="M28,10H22V4a2.0025,2.0025,0,0,0-2-2H4A2.0025,2.0025,0,0,0,2,4V20a2.0025,2.0025,0,0,0,2,2h6v6a2.0025,2.0025,0,0,0,2,2H28a2.0025,2.0025,0,0,0,2-2V12A2.0025,2.0025,0,0,0,28,10ZM4,20V4h6V20Zm18,8V12h6V28Z"></path>
    </g>
    <g id="icon-talk" fill="currentColor">
        <path d="M17.74,30,16,29l4-7h6a2,2,0,0,0,2-2V8a2,2,0,0,0-2-2H6A2,2,0,0,0,4,8V20a2,2,0,0,0,2,2h9v2H6a4,4,0,0,1-4-4V8A4,4,0,0,1,6,4H26a4,4,0,0,1,4,4V20a4,4,0,0,1-4,4H21.16Z"></path>
        <path d="M8 10H24V12H8zM8 16H18V18H8z"></path>
    </g>
    <g id="icon-resume" fill="currentColor">
        <path d="M16 22a4 4 0 10-4-4A4 4 0 0016 22zm0-6a2 2 0 11-2 2A2 2 0 0116 16zM14 6H18V8H14z"></path>
        <path d="M24,2H8A2.002,2.002,0,0,0,6,4V28a2.0023,2.0023,0,0,0,2,2H24a2.0027,2.0027,0,0,0,2-2V4A2.0023,2.0023,0,0,0,24,2ZM20,28H12V26a1,1,0,0,1,1-1h6a1,1,0,0,1,1,1Zm2,0V26a3,3,0,0,0-3-3H13a3,3,0,0,0-3,3v2H8V4H24V28Z"></path>
    </g>
    <g id="icon-info" fill="currentColor">
        <path d="M17 22L17 14 13 14 13 16 15 16 15 22 12 22 12 24 20 24 20 22 17 22zM16 8a1.5 1.5 0 101.5 1.5A1.5 1.5 0 0016 8z" />
        <path d="M16,30A14,14,0,1,1,30,16,14,14,0,0,1,16,30ZM16,4A12,12,0,1,0,28,16,12,12,0,0,0,16,4Z" />
    </g>

    <g id="icon-github" fill="currentColor">
        <path fill-rule="evenodd" d="M16,2a14,14,0,0,0-4.43,27.28c.7.13,1-.3,1-.67s0-1.21,0-2.38c-3.89.84-4.71-1.88-4.71-1.88A3.71,3.71,0,0,0,6.24,22.3c-1.27-.86.1-.85.1-.85A2.94,2.94,0,0,1,8.48,22.9a3,3,0,0,0,4.08,1.16,2.93,2.93,0,0,1,.88-1.87c-3.1-.36-6.37-1.56-6.37-6.92a5.4,5.4,0,0,1,1.44-3.76,5,5,0,0,1,.14-3.7s1.17-.38,3.85,1.43a13.3,13.3,0,0,1,7,0c2.67-1.81,3.84-1.43,3.84-1.43a5,5,0,0,1,.14,3.7,5.4,5.4,0,0,1,1.44,3.76c0,5.38-3.27,6.56-6.39,6.91a3.33,3.33,0,0,1,.95,2.59c0,1.87,0,3.38,0,3.84s.25.81,1,.67A14,14,0,0,0,16,2Z" />
    </g>

    <g id="icon-instagram" fill="currentColor">
        <circle cx="22.406" cy="9.594" r="1.44"></circle>
        <path d="M16,9.8378A6.1622,6.1622,0,1,0,22.1622,16,6.1622,6.1622,0,0,0,16,9.8378ZM16,20a4,4,0,1,1,4-4A4,4,0,0,1,16,20Z" />
        <path d="M16,6.1622c3.2041,0,3.5837.0122,4.849.07a6.6418,6.6418,0,0,1,2.2283.4132,3.9748,3.9748,0,0,1,2.2774,2.2774,6.6418,6.6418,0,0,1,.4132,2.2283c.0577,1.2653.07,1.6449.07,4.849s-.0122,3.5837-.07,4.849a6.6418,6.6418,0,0,1-.4132,2.2283,3.9748,3.9748,0,0,1-2.2774,2.2774,6.6418,6.6418,0,0,1-2.2283.4132c-1.2652.0577-1.6446.07-4.849.07s-3.5838-.0122-4.849-.07a6.6418,6.6418,0,0,1-2.2283-.4132,3.9748,3.9748,0,0,1-2.2774-2.2774,6.6418,6.6418,0,0,1-.4132-2.2283c-.0577-1.2653-.07-1.6449-.07-4.849s.0122-3.5837.07-4.849a6.6418,6.6418,0,0,1,.4132-2.2283A3.9748,3.9748,0,0,1,8.9227,6.6453a6.6418,6.6418,0,0,1,2.2283-.4132c1.2653-.0577,1.6449-.07,4.849-.07M16,4c-3.259,0-3.6677.0138-4.9476.0722A8.8068,8.8068,0,0,0,8.14,4.63,6.1363,6.1363,0,0,0,4.63,8.14a8.8068,8.8068,0,0,0-.5578,2.9129C4.0138,12.3323,4,12.741,4,16s.0138,3.6677.0722,4.9476A8.8074,8.8074,0,0,0,4.63,23.8605a6.1363,6.1363,0,0,0,3.51,3.51,8.8068,8.8068,0,0,0,2.9129.5578C12.3323,27.9862,12.741,28,16,28s3.6677-.0138,4.9476-.0722a8.8074,8.8074,0,0,0,2.9129-.5578,6.1363,6.1363,0,0,0,3.51-3.51,8.8074,8.8074,0,0,0,.5578-2.9129C27.9862,19.6677,28,19.259,28,16s-.0138-3.6677-.0722-4.9476A8.8068,8.8068,0,0,0,27.37,8.14a6.1363,6.1363,0,0,0-3.51-3.5095,8.8074,8.8074,0,0,0-2.9129-.5578C19.6677,4.0138,19.259,4,16,4Z" />
    </g>
    
    <g id="icon-twitter" fill="currentColor">
        <path d="M11.5475,25.7523c9.0566,0,14.0102-7.5034,14.0102-14.0102,0-.2131,0-.4253-.0144-.6365,.9637-.697,1.7955-1.5601,2.4566-2.5488-.8987,.3982-1.852,.6594-2.8282,.7747,1.0279-.6154,1.7972-1.5833,2.1648-2.7235-.9666,.5736-2.024,.9778-3.1267,1.1952-1.8648-1.9829-4.984-2.0786-6.9669-.2138-1.2788,1.2026-1.8214,2.9947-1.4245,4.7047-3.9591-.1985-7.6479-2.0685-10.1482-5.1446-1.3069,2.2499-.6394,5.1282,1.5245,6.5731-.7836-.0232-1.5501-.2346-2.2349-.6163v.0624c.0006,2.3439,1.6529,4.3628,3.9504,4.8269-.7249,.1977-1.4855,.2266-2.2234,.0845,.6451,2.0058,2.4937,3.38,4.6003,3.4195-1.7436,1.3703-3.8975,2.1142-6.1152,2.112-.3918-.0008-.7832-.0245-1.1722-.071,2.2518,1.4451,4.8719,2.2116,7.5475,2.208" />
    </g>
    <g id="icon-mail" fill="currentColor">
        <path d="M28,6H4A2,2,0,0,0,2,8V24a2,2,0,0,0,2,2H28a2,2,0,0,0,2-2V8A2,2,0,0,0,28,6ZM25.8,8,16,14.78,6.2,8ZM4,24V8.91l11.43,7.91a1,1,0,0,0,1.14,0L28,8.91V24Z" />
    </g>

    <g id="icon-arrow-top-right" fill="currentColor">
        <path d="M10 6L10 8 22.59 8 6 24.59 7.41 26 24 9.41 24 22 26 22 26 6 10 6z" />
    </g>
    <g id="icon-location" fill="currentColor">
        <path d="M16,18c-2.8,0-5-2.2-5-5s2.2-5,5-5s5,2.2,5,5S18.8,18,16,18z" />
        <path d="M16,30l-8.4-9.9c0-0.1-0.3-0.5-0.3-0.5C5.8,17.7,5,15.4,5,13C5,6.9,9.9,2,16,2s11,4.9,11,11c0,2.4-0.8,4.7-2.2,6.6l0,0 c0,0-0.3,0.4-0.3,0.4L16,30z M8.8,18.4c0,0,0.2,0.3,0.3,0.4l6.9,8.1l6.9-8.1c0-0.1,0.3-0.4,0.3-0.4C24.4,16.8,25,15,25,13 c0-5-4-9-9-9s-9,4-9,9C7,15,7.6,16.8,8.8,18.4L8.8,18.4z"/>
    </g>
    <g fill="currentColor" id="icon-location-star">
        <path d="M16 7L17.912 10.667 22 11.173 19 13.926 19.6 18 16 15.708 12.4 18 13 13.926 10 11.173 14.2 10.667 16 7z" />
        <path d="M16,30,7.5645,20.0513c-.0479-.0571-.3482-.4515-.3482-.4515A10.8888,10.8888,0,0,1,5,13a11,11,0,0,1,22,0,10.8844,10.8844,0,0,1-2.2148,6.5973l-.0015.0025s-.3.3944-.3447.4474ZM8.8125,18.395c.001.0007.2334.3082.2866.3744L16,26.9079l6.91-8.15c.0439-.0552.2783-.3649.2788-.3657A8.901,8.901,0,0,0,25,13,9,9,0,0,0,7,13a8.9054,8.9054,0,0,0,1.8125,5.395Z"/>
    </g>
    <g fill="currentColor" id="icon-location-c">
        <path d="M18.303,9a2.6616,2.6616,0,0,0-1.9079.8058l-.3932.4054-.397-.4054a2.6615,2.6615,0,0,0-3.8157,0,2.7992,2.7992,0,0,0,0,3.8964L16.0019,18l4.2089-4.2978a2.7992,2.7992,0,0,0,0-3.8964A2.6616,2.6616,0,0,0,18.303,9Z"/>
        <path d="M16,30,7.5645,20.0513c-.0479-.0571-.3482-.4515-.3482-.4515A10.8888,10.8888,0,0,1,5,13a11,11,0,0,1,22,0,10.8844,10.8844,0,0,1-2.2148,6.5973l-.0015.0025s-.3.3944-.3447.4474ZM8.8125,18.395c.001.0007.2334.3082.2866.3744L16,26.9079l6.91-8.15c.0439-.0552.2783-.3649.2788-.3657A8.901,8.901,0,0,0,25,13,9,9,0,0,0,7,13a8.9054,8.9054,0,0,0,1.8125,5.395Z"/>
    </g>
    <g fill="currentColor" id="icon-location-building">
        <path d="M16,30,7.5645,20.0513c-.0479-.0571-.3482-.4515-.3482-.4515A10.8888,10.8888,0,0,1,5,13a11,11,0,0,1,22,0,10.8844,10.8844,0,0,1-2.2148,6.5973l-.0015.0025s-.3.3944-.3447.4474ZM8.8125,18.395c.001.0007.2334.3082.2866.3744L16,26.9079l6.91-8.15c.0439-.0552.2783-.3649.2788-.3657A8.901,8.901,0,0,0,25,13,9,9,0,0,0,7,13a8.9054,8.9054,0,0,0,1.8125,5.395Z" />
        <path d="M21,18H19V10H13v8H11V10a2.0021,2.0021,0,0,1,2-2h6a2.0021,2.0021,0,0,1,2,2Z"/>
        <path d="M15 16H17V18H15zM15 12H17V14H15z"/>
    </g>
    <g fill="currentColor" id="icon-location-download">
        <path d="M10 13L11.4 11.6 15 15.2 15 2 17 2 17 15.2 20.6 11.6 22 13 16 19z"/>
        <path d="M20,2.8V5c3,1.5,5,4.5,5,8c0,2-0.6,3.8-1.8,5.4c0,0-0.2,0.3-0.3,0.4L16,26.9l-6.9-8.1c-0.1-0.1-0.3-0.4-0.3-0.4 C7.6,16.8,7,15,7,13c0-3.5,2-6.6,5-8V2.8C7.9,4.4,5,8.3,5,13c0,2.4,0.8,4.7,2.2,6.6c0,0,0.3,0.4,0.3,0.5L16,30l8.4-10 c0-0.1,0.3-0.4,0.3-0.4l0,0c1.4-1.9,2.2-4.2,2.2-6.6C27,8.3,24.1,4.4,20,2.8z"/>
    </g>
    <g fill="currentColor" id="icon-globe">
        <path d="M14,4a7,7,0,1,1-7,7,7,7,0,0,1,7-7m0-2a9,9,0,1,0,9,9A9,9,0,0,0,14,2Z"/>
        <path d="M28,11a13.9563,13.9563,0,0,0-4.1051-9.8949L22.4813,2.5187A11.9944,11.9944,0,0,1,5.5568,19.5194l-.0381-.0381L4.1051,20.8949A13.9563,13.9563,0,0,0,14,25v3H10v2H20V28H16V24.84A14.0094,14.0094,0,0,0,28,11Z"/>
    </g>
    <g fill="currentColor" id="icon-roadmap">
        <path d="M12 30H4a2.0023 2.0023 0 01-2-2V24a2.0023 2.0023 0 012-2h8a2.0023 2.0023 0 012 2v4A2.0023 2.0023 0 0112 30zM4 24v4h8V24zM28 20H12a2.0023 2.0023 0 01-2-2V14a2.0023 2.0023 0 012-2H28a2.0023 2.0023 0 012 2v4A2.0023 2.0023 0 0128 20zM12 14v4H28V14zM16 10H4A2.0023 2.0023 0 012 8V4A2.0023 2.0023 0 014 2H16a2.0023 2.0023 0 012 2V8A2.0023 2.0023 0 0116 10zM4 4V8H16V4z"/>
    </g>
    <g fill="currentColor" id="icon-crossroad">
        <path d="M26.5859,6.5859A1.9862,1.9862,0,0,0,25.1719,6H17V2H15V12H6.8281a1.9862,1.9862,0,0,0-1.414.5859L2,16l3.4141,3.4141A1.9862,1.9862,0,0,0,6.8281,20H15V30h2V14h8.1719a1.9862,1.9862,0,0,0,1.414-.5859L30,10ZM6.8281,18l-2-2,2-2H15v4Zm18.3438-6H17V8h8.1719l2,2Z"/>
    </g>
    <g fill="currentColor" id="icon-heatmap">
        <path d="M20 18H22V20H20zM28 16H30V18H28zM14 6H16V8H14zM16 22H12V16a2.0023 2.0023 0 00-2-2H4a2.0023 2.0023 0 00-2 2v6a2.0023 2.0023 0 002 2h6v4a2.0023 2.0023 0 002 2h4a2.0023 2.0023 0 002-2V24A2.0023 2.0023 0 0016 22zM4 22V16h6v6zm8 6V24h4v4zM28 30H24a2.0021 2.0021 0 01-2-2V24a2.0021 2.0021 0 012-2h4a2.0021 2.0021 0 012 2v4A2.0021 2.0021 0 0128 30zm-4-6v4h4V24zM28 2H22a2.0023 2.0023 0 00-2 2v6H18a2.0023 2.0023 0 00-2 2v2a2.0023 2.0023 0 002 2h2a2.0023 2.0023 0 002-2V12h6a2.0023 2.0023 0 002-2V4A2.0023 2.0023 0 0028 2zM18 14V12h2v2zm4-4V4h6v6zM8 10H4A2.0021 2.0021 0 012 8V4A2.0021 2.0021 0 014 2H8a2.0021 2.0021 0 012 2V8A2.0021 2.0021 0 018 10zM4 4V8H8V4z"/>
    </g>
    <g fill="currentColor" id="icon-heatmap2">
        <circle cx="21" cy="20" r="2"></circle><circle cx="14" cy="12" r="2"></circle><circle cx="29" cy="19" r="1"></circle><path d="M26.5 30A3.5 3.5 0 1130 26.5 3.5041 3.5041 0 0126.5 30zm0-5A1.5 1.5 0 1028 26.5 1.5017 1.5017 0 0026.5 25zM14 30a3.958 3.958 0 01-2.126-.6211 6.9977 6.9977 0 114.1109-6.8384A3.9916 3.9916 0 0114 30zm-1.8843-3.0278l.5391.4946a1.9915 1.9915 0 102.0039-3.343l-.6909-.2432.03-.8467a5.0085 5.0085 0 10-2.5166 4.3023zM24 16a6.0067 6.0067 0 01-6-6 5.3246 5.3246 0 01.0269-.5327A3.9564 3.9564 0 0116 6a4.0045 4.0045 0 014-4 3.9564 3.9564 0 013.4673 2.0271C23.6484 4.009 23.8252 4 24 4a6 6 0 010 12zM20 4a2.0021 2.0021 0 00-2 2 1.9805 1.9805 0 001.43 1.9023l.9018.2706-.2153.9162A3.9938 3.9938 0 1024 6a4.0064 4.0064 0 00-.9121.1162l-.9155.2141-.27-.9006A1.9807 1.9807 0 0020 4zM6.5 11A4.5 4.5 0 1111 6.5 4.5051 4.5051 0 016.5 11zm0-7A2.5 2.5 0 109 6.5 2.503 2.503 0 006.5 4z"/>
    </g>
    <g fill="currentColor" id="icon-map">
        <path d="M28 16H18V14h5V10a2 2 0 012-2h1.5a1.5 1.5 0 00.2837-2.9734l-.7109-.1355L25.9982 4.32a2.6322 2.6322 0 00-1.68-2.1823 2.5051 2.5051 0 00-3.0836 1.3042l-.3032.6472-.71-.0771a2.0185 2.0185 0 00-2.17 2.4343A2.0976 2.0976 0 0020.1261 8H21v2h-.7817A4.1491 4.1491 0 0116.012 6.3136a4.0047 4.0047 0 013.7414-4.306A4.5006 4.5006 0 0127.8267 3.26a3.5051 3.5051 0 012.1422 3.7094A3.6283 3.6283 0 0126.3172 10H25v4h3zM18 18H22V20H18zM14 18L14 16 12 16 12 20 16 20 16 18 14 18zM12 10H14V14H12z"/>
        <path d="M17.885 30L11.819 26.142 4 27.989 4 4 14 4 14 8 12 8 12 6 6 6 6 25.461 12.181 24.001 18.115 27.776 22.818 26 26 26 26 20 24 20 24 18 28 18 28 28 23.182 28 17.885 30z"/>
    </g>
</svg>